QuixoticSeven-MediumItalic.ufo
<glyph name="exclam" format="2">
  <advance width="583"/>
  <unicode hex="0021"/>
  <outline>
    <contour>
      <point x="524.0" y="0.0" type="curve" smooth="yes"/>
      <point x="522.0" y="32.0"/>
      <point x="548.0" y="59.0"/>
      <point x="580.0" y="59.0" type="curve" smooth="yes"/>
      <point x="612.0" y="59.0"/>
      <point x="640.0" y="32.0"/>
      <point x="642.0" y="0.0" type="curve" smooth="yes"/>
      <point x="644.0" y="-32.0"/>
      <point x="618.0" y="-59.0"/>
      <point x="586.0" y="-59.0" type="curve" smooth="yes"/>
      <point x="554.0" y="-59.0"/>
      <point x="526.0" y="-32.0"/>
    </contour>
    <contour>
      <point x="470.0" y="52.0" type="line" smooth="yes"/>
      <point x="411.0" y="108.0" type="line" smooth="yes"/>
      <point x="400.0" y="330.0" type="line" smooth="yes"/>
      <point x="453.0" y="386.0" type="line" smooth="yes"/>
      <point x="493.0" y="348.0" type="line" smooth="yes"/>
      <point x="506.0" y="90.0" type="line" smooth="yes"/>
    </contour>
    <contour>
      <point x="451.0" y="414.0" type="line" smooth="yes"/>
      <point x="392.0" y="470.0" type="line" smooth="yes"/>
      <point x="381.0" y="692.0" type="line" smooth="yes"/>
      <point x="434.0" y="748.0" type="line" smooth="yes"/>
      <point x="474.0" y="710.0" type="line" smooth="yes"/>
      <point x="487.0" y="452.0" type="line" smooth="yes"/>
    </contour>
  </outline>
</glyph>
<glyph name="quotedbl" format="2">
  <advance width="583"/>
  <unicode hex="0022"/>
  <outline>
    <contour>
      <point x="123.0" y="414.0" type="line" smooth="yes"/>
      <point x="89.0" y="452.0" type="line" smooth="yes"/>
      <point x="103.0" y="710.0" type="line" smooth="yes"/>
      <point x="140.0" y="748.0" type="line" smooth="yes"/>
      <point x="189.0" y="692.0" type="line" smooth="yes"/>
      <point x="178.0" y="470.0" type="line" smooth="yes"/>
    </contour>
    <contour>
      <point x="453.0" y="414.0" type="line" smooth="yes"/>
      <point x="404.0" y="470.0" type="line" smooth="yes"/>
      <point x="416.0" y="692.0" type="line" smooth="yes"/>
      <point x="471.0" y="748.0" type="line" smooth="yes"/>
      <point x="504.0" y="710.0" type="line" smooth="yes"/>
      <point x="491.0" y="452.0" type="line" smooth="yes"/>
    </contour>
  </outline>
</glyph>
<glyph name="percent" format="2">
  <advance width="583"/>
  <unicode hex="0025"/>
  <outline>
    <contour>
      <point x="477.0" y="0.0" type="curve" smooth="yes"/>
      <point x="479.0" y="32.0"/>
      <point x="505.0" y="59.0"/>
      <point x="535.0" y="59.0" type="curve" smooth="yes"/>
      <point x="565.0" y="59.0"/>
      <point x="589.0" y="32.0"/>
      <point x="587.0" y="0.0" type="curve" smooth="yes"/>
      <point x="585.0" y="-32.0"/>
      <point x="559.0" y="-59.0"/>
      <point x="529.0" y="-59.0" type="curve" smooth="yes"/>
      <point x="499.0" y="-59.0"/>
      <point x="475.0" y="-32.0"/>
    </contour>
    <contour>
      <point x="134.0" y="400.0" type="line" smooth="yes"/>
      <point x="180.0" y="447.0" type="line" smooth="yes"/>
      <point x="404.0" y="447.0" type="line" smooth="yes"/>
      <point x="445.0" y="400.0" type="line" smooth="yes"/>
      <point x="399.0" y="353.0" type="line" smooth="yes"/>
      <point x="175.0" y="353.0" type="line" smooth="yes"/>
    </contour>
    <contour>
      <point x="104.0" y="52.0" type="line" smooth="yes"/>
      <point x="70.0" y="90.0" type="line" smooth="yes"/>
      <point x="84.0" y="348.0" type="line" smooth="yes"/>
      <point x="121.0" y="386.0" type="line" smooth="yes"/>
      <point x="170.0" y="330.0" type="line" smooth="yes"/>
      <point x="159.0" y="108.0" type="line" smooth="yes"/>
    </contour>
    <contour>
      <point x="453.0" y="414.0" type="line" smooth="yes"/>
      <point x="404.0" y="470.0" type="line" smooth="yes"/>
      <point x="416.0" y="692.0" type="line" smooth="yes"/>
      <point x="471.0" y="748.0" type="line" smooth="yes"/>
      <point x="504.0" y="710.0" type="line" smooth="yes"/>
      <point x="491.0" y="452.0" type="line" smooth="yes"/>
    </contour>
  </outline>
</glyph>
<glyph name="quotesingle" format="2">
  <advance width="583"/>
  <unicode hex="0027"/>
  <outline>
    <contour>
      <point x="123.0" y="414.0" type="line" smooth="yes"/>
      <point x="89.0" y="452.0" type="line" smooth="yes"/>
      <point x="103.0" y="710.0" type="line" smooth="yes"/>
      <point x="140.0" y="748.0" type="line" smooth="yes"/>
      <point x="189.0" y="692.0" type="line" smooth="yes"/>
      <point x="178.0" y="470.0" type="line" smooth="yes"/>
    </contour>
  </outline>
</glyph>
<glyph name="parenleft" format="2">
  <advance width="583"/>
  <unicode hex="0028"/>
  <outline>
    <contour>
      <point x="132.0" y="414.0" type="line" smooth="yes"/>
      <point x="96.0" y="452.0" type="line" smooth="yes"/>
      <point x="109.0" y="710.0" type="line" smooth="yes"/>
      <point x="149.0" y="748.0" type="line" smooth="yes"/>
      <point x="202.0" y="692.0" type="line" smooth="yes"/>
      <point x="191.0" y="470.0" type="line" smooth="yes"/>
    </contour>
    <contour>
      <point x="113.0" y="52.0" type="line" smooth="yes"/>
      <point x="77.0" y="90.0" type="line" smooth="yes"/>
      <point x="90.0" y="348.0" type="line" smooth="yes"/>
      <point x="130.0" y="386.0" type="line" smooth="yes"/>
      <point x="183.0" y="330.0" type="line" smooth="yes"/>
      <point x="172.0" y="108.0" type="line" smooth="yes"/>
    </contour>
    <contour>
      <point x="126.0" y="38.0" type="line" smooth="yes"/>
      <point x="185.0" y="94.0" type="line" smooth="yes"/>
      <point x="408.0" y="94.0" type="line" smooth="yes"/>
      <point x="461.0" y="38.0" type="line" smooth="yes"/>
      <point x="421.0" y="0.0" type="line" smooth="yes"/>
      <point x="162.0" y="0.0" type="line" smooth="yes"/>
    </contour>
    <contour>
      <point x="499.0" y="762.0" type="line" smooth="yes"/>
      <point x="440.0" y="706.0" type="line" smooth="yes"/>
      <point x="217.0" y="706.0" type="line" smooth="yes"/>
      <point x="164.0" y="762.0" type="line" smooth="yes"/>
      <point x="204.0" y="800.0" type="line" smooth="yes"/>
      <point x="463.0" y="800.0" type="line" smooth="yes"/>
    </contour>
  </outline>
</glyph>
<glyph name="asterisk" format="2">
  <advance width="583"/>
  <unicode hex="002A"/>
  <outline>
    <contour>
      <point x="123.0" y="414.0" type="line" smooth="yes"/>
      <point x="89.0" y="452.0" type="line" smooth="yes"/>
      <point x="103.0" y="710.0" type="line" smooth="yes"/>
      <point x="140.0" y="748.0" type="line" smooth="yes"/>
      <point x="189.0" y="692.0" type="line" smooth="yes"/>
      <point x="178.0" y="470.0" type="line" smooth="yes"/>
    </contour>
    <contour>
      <point x="464.0" y="762.0" type="line" smooth="yes"/>
      <point x="409.0" y="706.0" type="line" smooth="yes"/>
      <point x="202.0" y="706.0" type="line" smooth="yes"/>
      <point x="153.0" y="762.0" type="line" smooth="yes"/>
      <point x="190.0" y="800.0" type="line" smooth="yes"/>
      <point x="431.0" y="800.0" type="line" smooth="yes"/>
    </contour>
  </outline>
</glyph>
<glyph name="comma" format="2">
  <advance width="583"/>
  <unicode hex="002C"/>
  <outline>
    <contour>
      <point x="107.0" y="52.0" type="line" smooth="yes"/>
      <point x="67.0" y="90.0" type="line" smooth="yes"/>
      <point x="54.0" y="348.0" type="line" smooth="yes"/>
      <point x="90.0" y="386.0" type="line" smooth="yes"/>
      <point x="149.0" y="330.0" type="line" smooth="yes"/>
      <point x="160.0" y="108.0" type="line" smooth="yes"/>
    </contour>
  </outline>
</glyph>
<glyph name="hyphen" format="2">
  <advance width="583"/>
  <unicode hex="002D"/>
  <outline>
    <contour>
      <point x="134.0" y="400.0" type="line" smooth="yes"/>
      <point x="180.0" y="447.0" type="line" smooth="yes"/>
      <point x="404.0" y="447.0" type="line" smooth="yes"/>
      <point x="445.0" y="400.0" type="line" smooth="yes"/>
      <point x="399.0" y="353.0" type="line" smooth="yes"/>
      <point x="175.0" y="353.0" type="line" smooth="yes"/>
    </contour>
  </outline>
</glyph>
<glyph name="period" format="2">
  <unicode hex="002E"/>
  <outline>
    <contour>
      <point x="-106.0" y="0.0" type="curve" smooth="yes"/>
      <point x="-104.0" y="32.0"/>
      <point x="-78.0" y="59.0"/>
      <point x="-48.0" y="59.0" type="curve" smooth="yes"/>
      <point x="-18.0" y="59.0"/>
      <point x="6.0" y="32.0"/>
      <point x="4.0" y="0.0" type="curve" smooth="yes"/>
      <point x="2.0" y="-32.0"/>
      <point x="-24.0" y="-59.0"/>
      <point x="-54.0" y="-59.0" type="curve" smooth="yes"/>
      <point x="-84.0" y="-59.0"/>
      <point x="-108.0" y="-32.0"/>
    </contour>
  </outline>
</glyph>
<glyph name="three" format="2">
  <advance width="583"/>
  <unicode hex="0033"/>
  <outline>
    <contour>
      <point x="103.0" y="400.0" type="line" smooth="yes"/>
      <point x="148.0" y="447.0" type="line" smooth="yes"/>
      <point x="389.0" y="447.0" type="line" smooth="yes"/>
      <point x="438.0" y="400.0" type="line" smooth="yes"/>
      <point x="394.0" y="353.0" type="line" smooth="yes"/>
      <point x="153.0" y="353.0" type="line" smooth="yes"/>
    </contour>
    <contour>
      <point x="122.0" y="38.0" type="line" smooth="yes"/>
      <point x="175.0" y="94.0" type="line" smooth="yes"/>
      <point x="398.0" y="94.0" type="line" smooth="yes"/>
      <point x="457.0" y="38.0" type="line" smooth="yes"/>
      <point x="421.0" y="0.0" type="line" smooth="yes"/>
      <point x="162.0" y="0.0" type="line" smooth="yes"/>
    </contour>
    <contour>
      <point x="470.0" y="52.0" type="line" smooth="yes"/>
      <point x="411.0" y="108.0" type="line" smooth="yes"/>
      <point x="400.0" y="330.0" type="line" smooth="yes"/>
      <point x="453.0" y="386.0" type="line" smooth="yes"/>
      <point x="493.0" y="348.0" type="line" smooth="yes"/>
      <point x="506.0" y="90.0" type="line" smooth="yes"/>
    </contour>
    <contour>
      <point x="451.0" y="414.0" type="line" smooth="yes"/>
      <point x="392.0" y="470.0" type="line" smooth="yes"/>
      <point x="381.0" y="692.0" type="line" smooth="yes"/>
      <point x="434.0" y="748.0" type="line" smooth="yes"/>
      <point x="474.0" y="710.0" type="line" smooth="yes"/>
      <point x="487.0" y="452.0" type="line" smooth="yes"/>
    </contour>
    <contour>
      <point x="419.0" y="762.0" type="line" smooth="yes"/>
      <point x="366.0" y="706.0" type="line" smooth="yes"/>
      <point x="143.0" y="706.0" type="line" smooth="yes"/>
      <point x="84.0" y="762.0" type="line" smooth="yes"/>
      <point x="120.0" y="800.0" type="line" smooth="yes"/>
      <point x="379.0" y="800.0" type="line" smooth="yes"/>
    </contour>
  </outline>
</glyph>
<glyph name="seven" format="2">
  <advance width="583"/>
  <unicode hex="0037"/>
  <outline>
    <contour>
      <point x="434.0" y="52.0" type="line" smooth="yes"/>
      <point x="385.0" y="108.0" type="line" smooth="yes"/>
      <point x="397.0" y="330.0" type="line" smooth="yes"/>
      <point x="452.0" y="386.0" type="line" smooth="yes"/>
      <point x="485.0" y="348.0" type="line" smooth="yes"/>
      <point x="472.0" y="90.0" type="line" smooth="yes"/>
    </contour>
    <contour>
      <point x="453.0" y="414.0" type="line" smooth="yes"/>
      <point x="404.0" y="470.0" type="line" smooth="yes"/>
      <point x="416.0" y="692.0" type="line" smooth="yes"/>
      <point x="471.0" y="748.0" type="line" smooth="yes"/>
      <point x="504.0" y="710.0" type="line" smooth="yes"/>
      <point x="491.0" y="452.0" type="line" smooth="yes"/>
    </contour>
    <contour>
      <point x="509.92578125" y="762.0" type="line" smooth="yes"/>
      <point x="454.92578125" y="706.0" type="line" smooth="yes"/>
      <point x="247.92578125" y="706.0" type="line" smooth="yes"/>
      <point x="198.92578125" y="762.0" type="line" smooth="yes"/>
      <point x="235.92578125" y="800.0" type="line" smooth="yes"/>
      <point x="476.92578125" y="800.0" type="line" smooth="yes"/>
    </contour>
  </outline>
</glyph>
<glyph name="colon" format="2">
  <advance width="194"/>
  <unicode hex="003A"/>
  <outline>
    <contour>
      <point x="50.578125" y="240.0" type="curve" smooth="yes"/>
      <point x="50.578125" y="272.0"/>
      <point x="77.578125" y="299.0"/>
      <point x="109.578125" y="299.0" type="curve" smooth="yes"/>
      <point x="141.578125" y="299.0"/>
      <point x="168.578125" y="272.0"/>
      <point x="168.578125" y="240.0" type="curve" smooth="yes"/>
      <point x="168.578125" y="208.0"/>
      <point x="141.578125" y="181.0"/>
      <point x="109.578125" y="181.0" type="curve" smooth="yes"/>
      <point x="77.578125" y="181.0"/>
      <point x="50.578125" y="208.0"/>
    </contour>
    <contour>
      <point x="67.3486328125" y="560.0" type="curve" smooth="yes"/>
      <point x="67.3486328125" y="592.0"/>
      <point x="94.3486328125" y="619.0"/>
      <point x="126.348632812" y="619.0" type="curve" smooth="yes"/>
      <point x="158.348632812" y="619.0"/>
      <point x="185.348632812" y="592.0"/>
      <point x="185.348632812" y="560.0" type="curve" smooth="yes"/>
      <point x="185.348632812" y="528.0"/>
      <point x="158.348632812" y="501.0"/>
      <point x="126.348632812" y="501.0" type="curve" smooth="yes"/>
      <point x="94.3486328125" y="501.0"/>
      <point x="67.3486328125" y="528.0"/>
    </contour>
  </outline>
</glyph>
<glyph name="semicolon" format="2">
  <advance width="583"/>
  <unicode hex="003B"/>
  <outline>
    <contour>
      <point x="104.0" y="52.0" type="line" smooth="yes"/>
      <point x="70.0" y="90.0" type="line" smooth="yes"/>
      <point x="84.0" y="348.0" type="line" smooth="yes"/>
      <point x="121.0" y="386.0" type="line" smooth="yes"/>
      <point x="170.0" y="330.0" type="line" smooth="yes"/>
      <point x="159.0" y="108.0" type="line" smooth="yes"/>
    </contour>
    <contour>
      <point x="464.0" y="762.0" type="line" smooth="yes"/>
      <point x="409.0" y="706.0" type="line" smooth="yes"/>
      <point x="202.0" y="706.0" type="line" smooth="yes"/>
      <point x="153.0" y="762.0" type="line" smooth="yes"/>
      <point x="190.0" y="800.0" type="line" smooth="yes"/>
      <point x="431.0" y="800.0" type="line" smooth="yes"/>
    </contour>
  </outline>
</glyph>
<glyph name="less" format="2">
  <advance width="583"/>
  <unicode hex="003C"/>
  <outline>
    <contour>
      <point x="103.0" y="400.0" type="line" smooth="yes"/>
      <point x="148.0" y="447.0" type="line" smooth="yes"/>
      <point x="389.0" y="447.0" type="line" smooth="yes"/>
      <point x="438.0" y="400.0" type="line" smooth="yes"/>
      <point x="394.0" y="353.0" type="line" smooth="yes"/>
      <point x="153.0" y="353.0" type="line" smooth="yes"/>
    </contour>
    <contour>
      <point x="88.0" y="414.0" type="line" smooth="yes"/>
      <point x="48.0" y="452.0" type="line" smooth="yes"/>
      <point x="35.0" y="710.0" type="line" smooth="yes"/>
      <point x="71.0" y="748.0" type="line" smooth="yes"/>
      <point x="130.0" y="692.0" type="line" smooth="yes"/>
      <point x="141.0" y="470.0" type="line" smooth="yes"/>
    </contour>
    <contour>
      <point x="419.0" y="762.0" type="line" smooth="yes"/>
      <point x="366.0" y="706.0" type="line" smooth="yes"/>
      <point x="143.0" y="706.0" type="line" smooth="yes"/>
      <point x="84.0" y="762.0" type="line" smooth="yes"/>
      <point x="120.0" y="800.0" type="line" smooth="yes"/>
      <point x="379.0" y="800.0" type="line" smooth="yes"/>
    </contour>
  </outline>
</glyph>
<glyph name="equal" format="2">
  <advance width="583"/>
  <unicode hex="003D"/>
  <outline>
    <contour>
      <point x="145.0" y="400.0" type="line" smooth="yes"/>
      <point x="194.0" y="447.0" type="line" smooth="yes"/>
      <point x="435.0" y="447.0" type="line" smooth="yes"/>
      <point x="480.0" y="400.0" type="line" smooth="yes"/>
      <point x="430.0" y="353.0" type="line" smooth="yes"/>
      <point x="189.0" y="353.0" type="line" smooth="yes"/>
    </contour>
    <contour>
      <point x="126.0" y="38.0" type="line" smooth="yes"/>
      <point x="185.0" y="94.0" type="line" smooth="yes"/>
      <point x="408.0" y="94.0" type="line" smooth="yes"/>
      <point x="461.0" y="38.0" type="line" smooth="yes"/>
      <point x="421.0" y="0.0" type="line" smooth="yes"/>
      <point x="162.0" y="0.0" type="line" smooth="yes"/>
    </contour>
  </outline>
</glyph>
<glyph name="greater" format="2">
  <advance width="583"/>
  <unicode hex="003E"/>
  <outline>
    <contour>
      <point x="134.0" y="400.0" type="line" smooth="yes"/>
      <point x="180.0" y="447.0" type="line" smooth="yes"/>
      <point x="404.0" y="447.0" type="line" smooth="yes"/>
      <point x="445.0" y="400.0" type="line" smooth="yes"/>
      <point x="399.0" y="353.0" type="line" smooth="yes"/>
      <point x="175.0" y="353.0" type="line" smooth="yes"/>
    </contour>
    <contour>
      <point x="453.0" y="414.0" type="line" smooth="yes"/>
      <point x="404.0" y="470.0" type="line" smooth="yes"/>
      <point x="416.0" y="692.0" type="line" smooth="yes"/>
      <point x="471.0" y="748.0" type="line" smooth="yes"/>
      <point x="504.0" y="710.0" type="line" smooth="yes"/>
      <point x="491.0" y="452.0" type="line" smooth="yes"/>
    </contour>
    <contour>
      <point x="509.92578125" y="762.0" type="line" smooth="yes"/>
      <point x="454.92578125" y="706.0" type="line" smooth="yes"/>
      <point x="247.92578125" y="706.0" type="line" smooth="yes"/>
      <point x="198.92578125" y="762.0" type="line" smooth="yes"/>
      <point x="235.92578125" y="800.0" type="line" smooth="yes"/>
      <point x="476.92578125" y="800.0" type="line" smooth="yes"/>
    </contour>
  </outline>
</glyph>
<glyph name="question" format="2">
  <advance width="583"/>
  <unicode hex="003F"/>
  <outline>
    <contour>
      <point x="103.0" y="400.0" type="line" smooth="yes"/>
      <point x="148.0" y="447.0" type="line" smooth="yes"/>
      <point x="389.0" y="447.0" type="line" smooth="yes"/>
      <point x="438.0" y="400.0" type="line" smooth="yes"/>
      <point x="394.0" y="353.0" type="line" smooth="yes"/>
      <point x="153.0" y="353.0" type="line" smooth="yes"/>
    </contour>
    <contour>
      <point x="107.0" y="52.0" type="line" smooth="yes"/>
      <point x="67.0" y="90.0" type="line" smooth="yes"/>
      <point x="54.0" y="348.0" type="line" smooth="yes"/>
      <point x="90.0" y="386.0" type="line" smooth="yes"/>
      <point x="149.0" y="330.0" type="line" smooth="yes"/>
      <point x="160.0" y="108.0" type="line" smooth="yes"/>
    </contour>
    <contour>
      <point x="451.0" y="414.0" type="line" smooth="yes"/>
      <point x="392.0" y="470.0" type="line" smooth="yes"/>
      <point x="381.0" y="692.0" type="line" smooth="yes"/>
      <point x="434.0" y="748.0" type="line" smooth="yes"/>
      <point x="474.0" y="710.0" type="line" smooth="yes"/>
      <point x="487.0" y="452.0" type="line" smooth="yes"/>
    </contour>
    <contour>
      <point x="419.0" y="762.0" type="line" smooth="yes"/>
      <point x="366.0" y="706.0" type="line" smooth="yes"/>
      <point x="143.0" y="706.0" type="line" smooth="yes"/>
      <point x="84.0" y="762.0" type="line" smooth="yes"/>
      <point x="120.0" y="800.0" type="line" smooth="yes"/>
      <point x="379.0" y="800.0" type="line" smooth="yes"/>
    </contour>
  </outline>
</glyph>
<glyph name="E" format="2">
  <advance width="583"/>
  <unicode hex="0045"/>
  <outline>
    <contour>
      <point x="134.0" y="400.0" type="line" smooth="yes"/>
      <point x="180.0" y="447.0" type="line" smooth="yes"/>
      <point x="404.0" y="447.0" type="line" smooth="yes"/>
      <point x="445.0" y="400.0" type="line" smooth="yes"/>
      <point x="399.0" y="353.0" type="line" smooth="yes"/>
      <point x="175.0" y="353.0" type="line" smooth="yes"/>
    </contour>
    <contour>
      <point x="123.0" y="414.0" type="line" smooth="yes"/>
      <point x="89.0" y="452.0" type="line" smooth="yes"/>
      <point x="103.0" y="710.0" type="line" smooth="yes"/>
      <point x="140.0" y="748.0" type="line" smooth="yes"/>
      <point x="189.0" y="692.0" type="line" smooth="yes"/>
      <point x="178.0" y="470.0" type="line" smooth="yes"/>
    </contour>
    <contour>
      <point x="104.0" y="52.0" type="line" smooth="yes"/>
      <point x="70.0" y="90.0" type="line" smooth="yes"/>
      <point x="84.0" y="348.0" type="line" smooth="yes"/>
      <point x="121.0" y="386.0" type="line" smooth="yes"/>
      <point x="170.0" y="330.0" type="line" smooth="yes"/>
      <point x="159.0" y="108.0" type="line" smooth="yes"/>
    </contour>
    <contour>
      <point x="115.0" y="38.0" type="line" smooth="yes"/>
      <point x="170.0" y="94.0" type="line" smooth="yes"/>
      <point x="377.0" y="94.0" type="line" smooth="yes"/>
      <point x="426.0" y="38.0" type="line" smooth="yes"/>
      <point x="389.0" y="0.0" type="line" smooth="yes"/>
      <point x="148.0" y="0.0" type="line" smooth="yes"/>
    </contour>
    <contour>
      <point x="509.92578125" y="762.0" type="line" smooth="yes"/>
      <point x="454.92578125" y="706.0" type="line" smooth="yes"/>
      <point x="247.92578125" y="706.0" type="line" smooth="yes"/>
      <point x="198.92578125" y="762.0" type="line" smooth="yes"/>
      <point x="235.92578125" y="800.0" type="line" smooth="yes"/>
      <point x="476.92578125" y="800.0" type="line" smooth="yes"/>
    </contour>
  </outline>
</glyph>
<glyph name="H" format="2">
  <advance width="583"/>
  <unicode hex="0048"/>
  <outline>
    <contour>
      <point x="103.0" y="400.0" type="line" smooth="yes"/>
      <point x="148.0" y="447.0" type="line" smooth="yes"/>
      <point x="389.0" y="447.0" type="line" smooth="yes"/>
      <point x="438.0" y="400.0" type="line" smooth="yes"/>
      <point x="394.0" y="353.0" type="line" smooth="yes"/>
      <point x="153.0" y="353.0" type="line" smooth="yes"/>
    </contour>
    <contour>
      <point x="88.0" y="414.0" type="line" smooth="yes"/>
      <point x="48.0" y="452.0" type="line" smooth="yes"/>
      <point x="35.0" y="710.0" type="line" smooth="yes"/>
      <point x="71.0" y="748.0" type="line" smooth="yes"/>
      <point x="130.0" y="692.0" type="line" smooth="yes"/>
      <point x="141.0" y="470.0" type="line" smooth="yes"/>
    </contour>
    <contour>
      <point x="107.0" y="52.0" type="line" smooth="yes"/>
      <point x="67.0" y="90.0" type="line" smooth="yes"/>
      <point x="54.0" y="348.0" type="line" smooth="yes"/>
      <point x="90.0" y="386.0" type="line" smooth="yes"/>
      <point x="149.0" y="330.0" type="line" smooth="yes"/>
      <point x="160.0" y="108.0" type="line" smooth="yes"/>
    </contour>
    <contour>
      <point x="470.0" y="52.0" type="line" smooth="yes"/>
      <point x="411.0" y="108.0" type="line" smooth="yes"/>
      <point x="400.0" y="330.0" type="line" smooth="yes"/>
      <point x="453.0" y="386.0" type="line" smooth="yes"/>
      <point x="493.0" y="348.0" type="line" smooth="yes"/>
      <point x="506.0" y="90.0" type="line" smooth="yes"/>
    </contour>
    <contour>
      <point x="451.0" y="414.0" type="line" smooth="yes"/>
      <point x="392.0" y="470.0" type="line" smooth="yes"/>
      <point x="381.0" y="692.0" type="line" smooth="yes"/>
      <point x="434.0" y="748.0" type="line" smooth="yes"/>
      <point x="474.0" y="710.0" type="line" smooth="yes"/>
      <point x="487.0" y="452.0" type="line" smooth="yes"/>
    </contour>
  </outline>
</glyph>
<glyph name="J" format="2">
  <advance width="583"/>
  <unicode hex="004A"/>
  <outline>
    <contour>
      <point x="104.0" y="52.0" type="line" smooth="yes"/>
      <point x="70.0" y="90.0" type="line" smooth="yes"/>
      <point x="84.0" y="348.0" type="line" smooth="yes"/>
      <point x="121.0" y="386.0" type="line" smooth="yes"/>
      <point x="170.0" y="330.0" type="line" smooth="yes"/>
      <point x="159.0" y="108.0" type="line" smooth="yes"/>
    </contour>
    <contour>
      <point x="115.0" y="38.0" type="line" smooth="yes"/>
      <point x="170.0" y="94.0" type="line" smooth="yes"/>
      <point x="377.0" y="94.0" type="line" smooth="yes"/>
      <point x="426.0" y="38.0" type="line" smooth="yes"/>
      <point x="389.0" y="0.0" type="line" smooth="yes"/>
      <point x="148.0" y="0.0" type="line" smooth="yes"/>
    </contour>
    <contour>
      <point x="434.0" y="52.0" type="line" smooth="yes"/>
      <point x="385.0" y="108.0" type="line" smooth="yes"/>
      <point x="397.0" y="330.0" type="line" smooth="yes"/>
      <point x="452.0" y="386.0" type="line" smooth="yes"/>
      <point x="485.0" y="348.0" type="line" smooth="yes"/>
      <point x="472.0" y="90.0" type="line" smooth="yes"/>
    </contour>
    <contour>
      <point x="453.0" y="414.0" type="line" smooth="yes"/>
      <point x="404.0" y="470.0" type="line" smooth="yes"/>
      <point x="416.0" y="692.0" type="line" smooth="yes"/>
      <point x="471.0" y="748.0" type="line" smooth="yes"/>
      <point x="504.0" y="710.0" type="line" smooth="yes"/>
      <point x="491.0" y="452.0" type="line" smooth="yes"/>
    </contour>
  </outline>
</glyph>
<glyph name="M" format="2">
  <advance width="583"/>
  <unicode hex="004D"/>
  <outline>
    <contour>
      <point x="134.0" y="400.0" type="line" smooth="yes"/>
      <point x="180.0" y="447.0" type="line" smooth="yes"/>
      <point x="404.0" y="447.0" type="line" smooth="yes"/>
      <point x="445.0" y="400.0" type="line" smooth="yes"/>
      <point x="399.0" y="353.0" type="line" smooth="yes"/>
      <point x="175.0" y="353.0" type="line" smooth="yes"/>
    </contour>
    <contour>
      <point x="104.0" y="52.0" type="line" smooth="yes"/>
      <point x="70.0" y="90.0" type="line" smooth="yes"/>
      <point x="84.0" y="348.0" type="line" smooth="yes"/>
      <point x="121.0" y="386.0" type="line" smooth="yes"/>
      <point x="170.0" y="330.0" type="line" smooth="yes"/>
      <point x="159.0" y="108.0" type="line" smooth="yes"/>
    </contour>
    <contour>
      <point x="434.0" y="52.0" type="line" smooth="yes"/>
      <point x="385.0" y="108.0" type="line" smooth="yes"/>
      <point x="397.0" y="330.0" type="line" smooth="yes"/>
      <point x="452.0" y="386.0" type="line" smooth="yes"/>
      <point x="485.0" y="348.0" type="line" smooth="yes"/>
      <point x="472.0" y="90.0" type="line" smooth="yes"/>
    </contour>
    <contour>
      <point x="509.92578125" y="762.0" type="line" smooth="yes"/>
      <point x="454.92578125" y="706.0" type="line" smooth="yes"/>
      <point x="247.92578125" y="706.0" type="line" smooth="yes"/>
      <point x="198.92578125" y="762.0" type="line" smooth="yes"/>
      <point x="235.92578125" y="800.0" type="line" smooth="yes"/>
      <point x="476.92578125" y="800.0" type="line" smooth="yes"/>
    </contour>
  </outline>
</glyph>
<glyph name="T" format="2">
  <advance width="583"/>
  <unicode hex="0054"/>
  <outline>
    <contour>
      <point x="145.0" y="400.0" type="line" smooth="yes"/>
      <point x="194.0" y="447.0" type="line" smooth="yes"/>
      <point x="435.0" y="447.0" type="line" smooth="yes"/>
      <point x="480.0" y="400.0" type="line" smooth="yes"/>
      <point x="430.0" y="353.0" type="line" smooth="yes"/>
      <point x="189.0" y="353.0" type="line" smooth="yes"/>
    </contour>
    <contour>
      <point x="132.0" y="414.0" type="line" smooth="yes"/>
      <point x="96.0" y="452.0" type="line" smooth="yes"/>
      <point x="109.0" y="710.0" type="line" smooth="yes"/>
      <point x="149.0" y="748.0" type="line" smooth="yes"/>
      <point x="202.0" y="692.0" type="line" smooth="yes"/>
      <point x="191.0" y="470.0" type="line" smooth="yes"/>
    </contour>
    <contour>
      <point x="113.0" y="52.0" type="line" smooth="yes"/>
      <point x="77.0" y="90.0" type="line" smooth="yes"/>
      <point x="90.0" y="348.0" type="line" smooth="yes"/>
      <point x="130.0" y="386.0" type="line" smooth="yes"/>
      <point x="183.0" y="330.0" type="line" smooth="yes"/>
      <point x="172.0" y="108.0" type="line" smooth="yes"/>
    </contour>
    <contour>
      <point x="126.0" y="38.0" type="line" smooth="yes"/>
      <point x="185.0" y="94.0" type="line" smooth="yes"/>
      <point x="408.0" y="94.0" type="line" smooth="yes"/>
      <point x="461.0" y="38.0" type="line" smooth="yes"/>
      <point x="421.0" y="0.0" type="line" smooth="yes"/>
      <point x="162.0" y="0.0" type="line" smooth="yes"/>
    </contour>
  </outline>
</glyph>
<glyph name="W" format="2">
  <advance width="583"/>
  <unicode hex="0057"/>
  <outline>
    <contour>
      <point x="104.0" y="52.0" type="line" smooth="yes"/>
      <point x="70.0" y="90.0" type="line" smooth="yes"/>
      <point x="84.0" y="348.0" type="line" smooth="yes"/>
      <point x="121.0" y="386.0" type="line" smooth="yes"/>
      <point x="170.0" y="330.0" type="line" smooth="yes"/>
      <point x="159.0" y="108.0" type="line" smooth="yes"/>
    </contour>
    <contour>
      <point x="115.0" y="38.0" type="line" smooth="yes"/>
      <point x="170.0" y="94.0" type="line" smooth="yes"/>
      <point x="377.0" y="94.0" type="line" smooth="yes"/>
      <point x="426.0" y="38.0" type="line" smooth="yes"/>
      <point x="389.0" y="0.0" type="line" smooth="yes"/>
      <point x="148.0" y="0.0" type="line" smooth="yes"/>
    </contour>
    <contour>
      <point x="434.0" y="52.0" type="line" smooth="yes"/>
      <point x="385.0" y="108.0" type="line" smooth="yes"/>
      <point x="397.0" y="330.0" type="line" smooth="yes"/>
      <point x="452.0" y="386.0" type="line" smooth="yes"/>
      <point x="485.0" y="348.0" type="line" smooth="yes"/>
      <point x="472.0" y="90.0" type="line" smooth="yes"/>
    </contour>
    <contour>
      <point x="509.92578125" y="762.0" type="line" smooth="yes"/>
      <point x="454.92578125" y="706.0" type="line" smooth="yes"/>
      <point x="247.92578125" y="706.0" type="line" smooth="yes"/>
      <point x="198.92578125" y="762.0" type="line" smooth="yes"/>
      <point x="235.92578125" y="800.0" type="line" smooth="yes"/>
      <point x="476.92578125" y="800.0" type="line" smooth="yes"/>
    </contour>
  </outline>
</glyph>
<glyph name="asciicircum" format="2">
  <advance width="583"/>
  <unicode hex="005E"/>
  <outline>
    <contour>
      <point x="123.0" y="414.0" type="line" smooth="yes"/>
      <point x="89.0" y="452.0" type="line" smooth="yes"/>
      <point x="103.0" y="710.0" type="line" smooth="yes"/>
      <point x="140.0" y="748.0" type="line" smooth="yes"/>
      <point x="189.0" y="692.0" type="line" smooth="yes"/>
      <point x="178.0" y="470.0" type="line" smooth="yes"/>
    </contour>
    <contour>
      <point x="453.0" y="414.0" type="line" smooth="yes"/>
      <point x="404.0" y="470.0" type="line" smooth="yes"/>
      <point x="416.0" y="692.0" type="line" smooth="yes"/>
      <point x="471.0" y="748.0" type="line" smooth="yes"/>
      <point x="504.0" y="710.0" type="line" smooth="yes"/>
      <point x="491.0" y="452.0" type="line" smooth="yes"/>
    </contour>
    <contour>
      <point x="509.92578125" y="762.0" type="line" smooth="yes"/>
      <point x="454.92578125" y="706.0" type="line" smooth="yes"/>
      <point x="247.92578125" y="706.0" type="line" smooth="yes"/>
      <point x="198.92578125" y="762.0" type="line" smooth="yes"/>
      <point x="235.92578125" y="800.0" type="line" smooth="yes"/>
      <point x="476.92578125" y="800.0" type="line" smooth="yes"/>
    </contour>
  </outline>
</glyph>
<glyph name="underscore" format="2">
  <advance width="583"/>
  <unicode hex="005F"/>
  <outline>
    <contour>
      <point x="126.0" y="38.0" type="line" smooth="yes"/>
      <point x="185.0" y="94.0" type="line" smooth="yes"/>
      <point x="408.0" y="94.0" type="line" smooth="yes"/>
      <point x="461.0" y="38.0" type="line" smooth="yes"/>
      <point x="421.0" y="0.0" type="line" smooth="yes"/>
      <point x="162.0" y="0.0" type="line" smooth="yes"/>
    </contour>
  </outline>
</glyph>
<glyph name="u" format="2">
  <advance width="583"/>
  <unicode hex="0075"/>
  <outline>
    <contour>
      <point x="104.0" y="52.0" type="line" smooth="yes"/>
      <point x="70.0" y="90.0" type="line" smooth="yes"/>
      <point x="84.0" y="348.0" type="line" smooth="yes"/>
      <point x="121.0" y="386.0" type="line" smooth="yes"/>
      <point x="170.0" y="330.0" type="line" smooth="yes"/>
      <point x="159.0" y="108.0" type="line" smooth="yes"/>
    </contour>
    <contour>
      <point x="115.0" y="38.0" type="line" smooth="yes"/>
      <point x="170.0" y="94.0" type="line" smooth="yes"/>
      <point x="377.0" y="94.0" type="line" smooth="yes"/>
      <point x="426.0" y="38.0" type="line" smooth="yes"/>
      <point x="389.0" y="0.0" type="line" smooth="yes"/>
      <point x="148.0" y="0.0" type="line" smooth="yes"/>
    </contour>
    <contour>
      <point x="434.0" y="52.0" type="line" smooth="yes"/>
      <point x="385.0" y="108.0" type="line" smooth="yes"/>
      <point x="397.0" y="330.0" type="line" smooth="yes"/>
      <point x="452.0" y="386.0" type="line" smooth="yes"/>
      <point x="485.0" y="348.0" type="line" smooth="yes"/>
      <point x="472.0" y="90.0" type="line" smooth="yes"/>
    </contour>
  </outline>
</glyph>
<glyph name="asciitilde" format="2">
  <advance width="583"/>
  <unicode hex="007E"/>
  <outline>
    <contour>
      <point x="464.0" y="762.0" type="line" smooth="yes"/>
      <point x="409.0" y="706.0" type="line" smooth="yes"/>
      <point x="202.0" y="706.0" type="line" smooth="yes"/>
      <point x="153.0" y="762.0" type="line" smooth="yes"/>
      <point x="190.0" y="800.0" type="line" smooth="yes"/>
      <point x="431.0" y="800.0" type="line" smooth="yes"/>
    </contour>
  </outline>
</glyph>
<glyph name="logicalnot" format="2">
  <advance width="583"/>
  <unicode hex="00AC"/>
  <outline>
    <contour>
      <point x="103.0" y="400.0" type="line" smooth="yes"/>
      <point x="148.0" y="447.0" type="line" smooth="yes"/>
      <point x="389.0" y="447.0" type="line" smooth="yes"/>
      <point x="438.0" y="400.0" type="line" smooth="yes"/>
      <point x="394.0" y="353.0" type="line" smooth="yes"/>
      <point x="153.0" y="353.0" type="line" smooth="yes"/>
    </contour>
    <contour>
      <point x="470.0" y="52.0" type="line" smooth="yes"/>
      <point x="411.0" y="108.0" type="line" smooth="yes"/>
      <point x="400.0" y="330.0" type="line" smooth="yes"/>
      <point x="453.0" y="386.0" type="line" smooth="yes"/>
      <point x="493.0" y="348.0" type="line" smooth="yes"/>
      <point x="506.0" y="90.0" type="line" smooth="yes"/>
    </contour>
  </outline>
</glyph>
<glyph name="plusminus" format="2">
  <advance width="583"/>
  <unicode hex="00B1"/>
  <outline>
    <contour>
      <point x="134.0" y="400.0" type="line" smooth="yes"/>
      <point x="180.0" y="447.0" type="line" smooth="yes"/>
      <point x="404.0" y="447.0" type="line" smooth="yes"/>
      <point x="445.0" y="400.0" type="line" smooth="yes"/>
      <point x="399.0" y="353.0" type="line" smooth="yes"/>
      <point x="175.0" y="353.0" type="line" smooth="yes"/>
    </contour>
    <contour>
      <point x="115.0" y="38.0" type="line" smooth="yes"/>
      <point x="170.0" y="94.0" type="line" smooth="yes"/>
      <point x="377.0" y="94.0" type="line" smooth="yes"/>
      <point x="426.0" y="38.0" type="line" smooth="yes"/>
      <point x="389.0" y="0.0" type="line" smooth="yes"/>
      <point x="148.0" y="0.0" type="line" smooth="yes"/>
    </contour>
    <contour>
      <point x="434.0" y="52.0" type="line" smooth="yes"/>
      <point x="385.0" y="108.0" type="line" smooth="yes"/>
      <point x="397.0" y="330.0" type="line" smooth="yes"/>
      <point x="452.0" y="386.0" type="line" smooth="yes"/>
      <point x="485.0" y="348.0" type="line" smooth="yes"/>
      <point x="472.0" y="90.0" type="line" smooth="yes"/>
    </contour>
    <contour>
      <point x="453.0" y="414.0" type="line" smooth="yes"/>
      <point x="404.0" y="470.0" type="line" smooth="yes"/>
      <point x="416.0" y="692.0" type="line" smooth="yes"/>
      <point x="471.0" y="748.0" type="line" smooth="yes"/>
      <point x="504.0" y="710.0" type="line" smooth="yes"/>
      <point x="491.0" y="452.0" type="line" smooth="yes"/>
    </contour>
  </outline>
</glyph>
<glyph name="quoteleft" format="2">
  <advance width="583"/>
  <unicode hex="2018"/>
  <outline>
    <contour>
      <point x="453.0" y="414.0" type="line" smooth="yes"/>
      <point x="404.0" y="470.0" type="line" smooth="yes"/>
      <point x="416.0" y="692.0" type="line" smooth="yes"/>
      <point x="471.0" y="748.0" type="line" smooth="yes"/>
      <point x="504.0" y="710.0" type="line" smooth="yes"/>
      <point x="491.0" y="452.0" type="line" smooth="yes"/>
    </contour>
  </outline>
</glyph>
<glyph name="daggerdbl" format="2">
  <advance width="583"/>
  <unicode hex="2021"/>
  <outline>
    <contour>
      <point x="134.0" y="400.0" type="line" smooth="yes"/>
      <point x="180.0" y="447.0" type="line" smooth="yes"/>
      <point x="404.0" y="447.0" type="line" smooth="yes"/>
      <point x="445.0" y="400.0" type="line" smooth="yes"/>
      <point x="399.0" y="353.0" type="line" smooth="yes"/>
      <point x="175.0" y="353.0" type="line" smooth="yes"/>
    </contour>
    <contour>
      <point x="434.0" y="52.0" type="line" smooth="yes"/>
      <point x="385.0" y="108.0" type="line" smooth="yes"/>
      <point x="397.0" y="330.0" type="line" smooth="yes"/>
      <point x="452.0" y="386.0" type="line" smooth="yes"/>
      <point x="485.0" y="348.0" type="line" smooth="yes"/>
      <point x="472.0" y="90.0" type="line" smooth="yes"/>
    </contour>
    <contour>
      <point x="453.0" y="414.0" type="line" smooth="yes"/>
      <point x="404.0" y="470.0" type="line" smooth="yes"/>
      <point x="416.0" y="692.0" type="line" smooth="yes"/>
      <point x="471.0" y="748.0" type="line" smooth="yes"/>
      <point x="504.0" y="710.0" type="line" smooth="yes"/>
      <point x="491.0" y="452.0" type="line" smooth="yes"/>
    </contour>
    <contour>
      <point x="509.92578125" y="762.0" type="line" smooth="yes"/>
      <point x="454.92578125" y="706.0" type="line" smooth="yes"/>
      <point x="247.92578125" y="706.0" type="line" smooth="yes"/>
      <point x="198.92578125" y="762.0" type="line" smooth="yes"/>
      <point x="235.92578125" y="800.0" type="line" smooth="yes"/>
      <point x="476.92578125" y="800.0" type="line" smooth="yes"/>
    </contour>
  </outline>
</glyph>
<glyph name="ellipsis" format="2">
  <advance width="583"/>
  <unicode hex="2026"/>
  <outline>
    <contour>
      <point x="524.0" y="0.0" type="curve" smooth="yes"/>
      <point x="522.0" y="32.0"/>
      <point x="548.0" y="59.0"/>
      <point x="580.0" y="59.0" type="curve" smooth="yes"/>
      <point x="612.0" y="59.0"/>
      <point x="640.0" y="32.0"/>
      <point x="642.0" y="0.0" type="curve" smooth="yes"/>
      <point x="644.0" y="-32.0"/>
      <point x="618.0" y="-59.0"/>
      <point x="586.0" y="-59.0" type="curve" smooth="yes"/>
      <point x="554.0" y="-59.0"/>
      <point x="526.0" y="-32.0"/>
    </contour>
    <contour>
      <point x="107.0" y="52.0" type="line" smooth="yes"/>
      <point x="67.0" y="90.0" type="line" smooth="yes"/>
      <point x="54.0" y="348.0" type="line" smooth="yes"/>
      <point x="90.0" y="386.0" type="line" smooth="yes"/>
      <point x="149.0" y="330.0" type="line" smooth="yes"/>
      <point x="160.0" y="108.0" type="line" smooth="yes"/>
    </contour>
    <contour>
      <point x="470.0" y="52.0" type="line" smooth="yes"/>
      <point x="411.0" y="108.0" type="line" smooth="yes"/>
      <point x="400.0" y="330.0" type="line" smooth="yes"/>
      <point x="453.0" y="386.0" type="line" smooth="yes"/>
      <point x="493.0" y="348.0" type="line" smooth="yes"/>
      <point x="506.0" y="90.0" type="line" smooth="yes"/>
    </contour>
  </outline>
</glyph>
<glyph name="unie000" format="2">
  <advance width="583"/>
  <unicode hex="E000"/>
  <outline>
    <contour>
      <point x="477.0" y="0.0" type="curve" smooth="yes"/>
      <point x="479.0" y="32.0"/>
      <point x="505.0" y="59.0"/>
      <point x="535.0" y="59.0" type="curve" smooth="yes"/>
      <point x="565.0" y="59.0"/>
      <point x="589.0" y="32.0"/>
      <point x="587.0" y="0.0" type="curve" smooth="yes"/>
      <point x="585.0" y="-32.0"/>
      <point x="559.0" y="-59.0"/>
      <point x="529.0" y="-59.0" type="curve" smooth="yes"/>
      <point x="499.0" y="-59.0"/>
      <point x="475.0" y="-32.0"/>
    </contour>
    <contour>
      <point x="134.0" y="400.0" type="line" smooth="yes"/>
      <point x="180.0" y="447.0" type="line" smooth="yes"/>
      <point x="404.0" y="447.0" type="line" smooth="yes"/>
      <point x="445.0" y="400.0" type="line" smooth="yes"/>
      <point x="399.0" y="353.0" type="line" smooth="yes"/>
      <point x="175.0" y="353.0" type="line" smooth="yes"/>
    </contour>
    <contour>
      <point x="123.0" y="414.0" type="line" smooth="yes"/>
      <point x="89.0" y="452.0" type="line" smooth="yes"/>
      <point x="103.0" y="710.0" type="line" smooth="yes"/>
      <point x="140.0" y="748.0" type="line" smooth="yes"/>
      <point x="189.0" y="692.0" type="line" smooth="yes"/>
      <point x="178.0" y="470.0" type="line" smooth="yes"/>
    </contour>
    <contour>
      <point x="104.0" y="52.0" type="line" smooth="yes"/>
      <point x="70.0" y="90.0" type="line" smooth="yes"/>
      <point x="84.0" y="348.0" type="line" smooth="yes"/>
      <point x="121.0" y="386.0" type="line" smooth="yes"/>
      <point x="170.0" y="330.0" type="line" smooth="yes"/>
      <point x="159.0" y="108.0" type="line" smooth="yes"/>
    </contour>
    <contour>
      <point x="115.0" y="38.0" type="line" smooth="yes"/>
      <point x="170.0" y="94.0" type="line" smooth="yes"/>
      <point x="377.0" y="94.0" type="line" smooth="yes"/>
      <point x="426.0" y="38.0" type="line" smooth="yes"/>
      <point x="389.0" y="0.0" type="line" smooth="yes"/>
      <point x="148.0" y="0.0" type="line" smooth="yes"/>
    </contour>
    <contour>
      <point x="434.0" y="52.0" type="line" smooth="yes"/>
      <point x="385.0" y="108.0" type="line" smooth="yes"/>
      <point x="397.0" y="330.0" type="line" smooth="yes"/>
      <point x="452.0" y="386.0" type="line" smooth="yes"/>
      <point x="485.0" y="348.0" type="line" smooth="yes"/>
      <point x="472.0" y="90.0" type="line" smooth="yes"/>
    </contour>
    <contour>
      <point x="453.0" y="414.0" type="line" smooth="yes"/>
      <point x="404.0" y="470.0" type="line" smooth="yes"/>
      <point x="416.0" y="692.0" type="line" smooth="yes"/>
      <point x="471.0" y="748.0" type="line" smooth="yes"/>
      <point x="504.0" y="710.0" type="line" smooth="yes"/>
      <point x="491.0" y="452.0" type="line" smooth="yes"/>
    </contour>
    <contour>
      <point x="464.0" y="762.0" type="line" smooth="yes"/>
      <point x="409.0" y="706.0" type="line" smooth="yes"/>
      <point x="202.0" y="706.0" type="line" smooth="yes"/>
      <point x="153.0" y="762.0" type="line" smooth="yes"/>
      <point x="190.0" y="800.0" type="line" smooth="yes"/>
      <point x="431.0" y="800.0" type="line" smooth="yes"/>
    </contour>
  </outline>
</glyph>
<glyph name="unie671" format="2">
  <advance width="583"/>
  <unicode hex="E671"/>
  <outline>
    <contour>
      <point x="107.0" y="52.0" type="line" smooth="yes"/>
      <point x="67.0" y="90.0" type="line" smooth="yes"/>
      <point x="54.0" y="348.0" type="line" smooth="yes"/>
      <point x="90.0" y="386.0" type="line" smooth="yes"/>
      <point x="149.0" y="330.0" type="line" smooth="yes"/>
      <point x="160.0" y="108.0" type="line" smooth="yes"/>
    </contour>
    <contour>
      <point x="470.0" y="52.0" type="line" smooth="yes"/>
      <point x="411.0" y="108.0" type="line" smooth="yes"/>
      <point x="400.0" y="330.0" type="line" smooth="yes"/>
      <point x="453.0" y="386.0" type="line" smooth="yes"/>
      <point x="493.0" y="348.0" type="line" smooth="yes"/>
      <point x="506.0" y="90.0" type="line" smooth="yes"/>
    </contour>
  </outline>
</glyph>
<glyph name="unie672" format="2">
  <advance width="583"/>
  <unicode hex="E672"/>
  <outline>
    <contour>
      <point x="113.0" y="52.0" type="line" smooth="yes"/>
      <point x="77.0" y="90.0" type="line" smooth="yes"/>
      <point x="90.0" y="348.0" type="line" smooth="yes"/>
      <point x="130.0" y="386.0" type="line" smooth="yes"/>
      <point x="183.0" y="330.0" type="line" smooth="yes"/>
      <point x="172.0" y="108.0" type="line" smooth="yes"/>
    </contour>
    <contour>
      <point x="126.0" y="38.0" type="line" smooth="yes"/>
      <point x="185.0" y="94.0" type="line" smooth="yes"/>
      <point x="408.0" y="94.0" type="line" smooth="yes"/>
      <point x="461.0" y="38.0" type="line" smooth="yes"/>
      <point x="421.0" y="0.0" type="line" smooth="yes"/>
      <point x="162.0" y="0.0" type="line" smooth="yes"/>
    </contour>
  </outline>
</glyph>
